<svg width="94" height="66" viewBox="0 0 94 66" fill="none" xmlns="http://www.w3.org/2000/svg">
<g clip-path="url(#clip0_2_4719)">
<path fill-rule="evenodd" clip-rule="evenodd" d="M15.2707 32.7502C7.53547 35.4922 1.78089 44.6361 0.376224 56.4168L0 59.5724L3.23361 57.906C7.56636 55.6729 10.7801 56.0364 26.4187 60.5312C50.5966 67.4806 59.7859 67.7339 68.9726 61.7072C70.8434 60.4798 77.393 54.3684 83.5266 48.126C95.4429 35.9984 95.8988 35.0072 88.4154 37.4945C85.6191 38.4238 83.2993 40.2029 76.784 46.4157C70.3046 52.5943 67.8659 54.4681 64.8205 55.6076C57.6818 58.2804 48.3764 57.2074 40.6534 52.8223C35.1748 49.7108 28.6741 44.7151 29.1348 43.9698C29.3613 43.6023 31.1504 43.2966 33.1105 43.2905C41.7368 43.2615 51.741 39.5901 54.2031 35.5505C56.2407 32.2068 55.9908 31.5123 53.1733 32.6903C50.055 33.9941 40.9438 33.977 34.0394 32.6554C27.3352 31.3715 19.0405 31.4134 15.2707 32.7502ZM80.0204 35.3787C76.826 36.5185 74.4746 38.6594 69.4312 45.0193C67.3346 47.6638 64.2038 51.1813 62.4744 52.8368C59.8663 55.3328 59.6226 55.7595 61.0464 55.3391C64.5795 54.2957 69.1786 50.6738 77.1692 42.6419C85.5965 34.172 85.9535 33.2626 80.0204 35.3787ZM69.8136 37.4705C68.4083 38.4258 66.0445 40.9954 64.5616 43.1805C63.0787 45.3648 59.9644 48.9133 57.6412 51.0659C55.3173 53.2181 53.5983 54.9792 53.8207 54.9792C55.5438 54.9792 59.7201 52.3181 63.2138 48.9937C67.5247 44.8916 72.9792 37.5625 72.5907 36.3953C72.4692 36.0307 71.2197 36.5149 69.8136 37.4705Z" fill="#C4093D"/>
<path d="M78.806 27.6806C78.806 12.393 66.4129 0 51.1254 0C35.8378 0 23.4448 12.393 23.4448 27.6806V27.8776C23.4448 43.1652 35.8378 55.5582 51.1254 55.5582C66.4129 55.5582 78.806 43.1652 78.806 27.8776V27.6806Z" fill="#F87E0D"/>
<path fill-rule="evenodd" clip-rule="evenodd" d="M47.84 4.24546C46.7436 4.68885 46.1878 6.26674 46.7538 7.32824C47.5373 8.79708 50.0138 8.64621 50.7221 7.08681C51.178 6.08324 51.1208 5.70265 50.3941 4.89668C49.5122 3.91938 48.9815 3.78407 47.84 4.24546ZM55.5653 5.18919C54.1911 5.87639 52.6081 7.08536 52.0468 7.87576L51.0273 9.31251L53.3513 7.83391C54.6297 7.02014 56.1678 6.35482 56.7689 6.35482C57.9748 6.35482 59.892 8.59705 60.7216 10.9785C61.0892 12.0341 61.2401 12.169 61.2659 11.4652C61.327 9.80505 60.3991 7.11505 59.2056 5.49239L58.0642 3.94031L55.5653 5.18919ZM52.3327 5.38143C51.85 5.9168 51.6729 6.35482 51.9396 6.35482C52.2064 6.35482 52.8201 5.9168 53.3028 5.38143C53.7855 4.84606 53.9626 4.40802 53.6958 4.40802C53.4289 4.40802 52.8154 4.84606 52.3327 5.38143ZM44.0571 6.12706C45.2831 7.05714 46.0727 7.04739 45.2985 6.11147C44.9663 5.70995 44.3394 5.38825 43.9054 5.397C43.2416 5.41014 43.2659 5.52646 44.0571 6.12706ZM39.242 6.34267C38.4552 7.62025 37.6533 12.2979 38.0142 13.5045L38.4236 14.8721L38.4652 13.5181C38.5158 11.8779 39.7771 8.72117 40.5876 8.20527C41.3444 7.72294 44.1625 8.22424 46.0262 9.17184C47.3918 9.86636 47.4388 9.86053 46.7893 9.07499C45.464 7.4718 39.8077 5.42474 39.242 6.34267ZM61.3144 7.17783C61.3187 7.39441 61.5337 7.90009 61.7922 8.30163C62.1972 8.93093 62.2632 8.91779 62.2701 8.20868C62.2739 7.75603 62.0591 7.25036 61.7922 7.08488C61.5254 6.91939 61.3105 6.96126 61.3144 7.17783ZM53.6574 8.30454C51.034 9.90482 50.9938 13.412 53.5983 13.412C54.4685 13.412 54.7983 13.1083 54.9207 12.1952C55.0517 11.2116 54.9634 11.0953 54.4599 11.5869C53.446 12.5763 52.4903 12.3179 52.6625 11.1001C52.76 10.4144 53.2072 9.94911 53.8597 9.85615C54.4419 9.77292 55.0221 9.24533 55.1744 8.66033C55.5434 7.245 55.4353 7.2197 53.6574 8.30454ZM56.0941 8.46809C55.4445 9.898 56.1644 11.4238 56.9338 10.2484C57.5189 9.35386 57.578 7.32824 57.0193 7.32824C56.7951 7.32824 56.379 7.8412 56.0941 8.46809ZM58.2475 9.30666C58.0587 10.0319 58.2315 10.7702 58.7162 11.3075C59.1388 11.7757 59.3555 12.4955 59.1983 12.9073C58.83 13.8695 57.4263 13.8836 57.4263 12.9253C57.4263 12.1217 56.671 11.9392 56.2407 12.6381C55.7929 13.3652 56.4769 14.5698 57.5282 14.9047C59.1256 15.4133 60.5324 13.6373 60.1506 11.5951C59.9794 10.6796 59.5486 9.53201 59.1935 9.04433C58.5828 8.20673 58.5304 8.22132 58.2475 9.30666ZM63.3557 9.05943C62.7625 9.47603 62.2774 10.2299 62.2774 10.7351C62.2774 11.581 63.9302 13.1686 64.811 13.1686C65.3568 13.1686 67.1283 11.3084 67.1283 10.7351C67.1283 10.1618 65.3568 8.30163 64.811 8.30163C64.6034 8.30163 63.9485 8.6428 63.3557 9.05943ZM40.9326 9.8323C40.9326 11.0033 41.7156 12.1952 42.4849 12.1952C43.2489 12.1952 42.8545 10.3828 41.9027 9.51837C40.9578 8.66033 40.9326 8.66811 40.9326 9.8323ZM43.3232 9.69602C43.6619 10.3312 44.3483 10.7351 45.0885 10.7351C46.4264 10.7351 47.1807 11.9616 46.3537 12.7914C45.9719 13.1745 45.6168 13.1487 45.0764 12.699C44.4442 12.1728 44.3284 12.2283 44.3284 13.0572C44.3284 14.2686 45.5406 14.7937 46.7887 14.123C48.8548 13.0139 47.1784 9.75491 44.1546 9.002C42.8551 8.67785 42.8031 8.72117 43.3232 9.69602ZM36.3085 10.2976C36.1304 10.8597 36.2251 11.5606 36.5185 11.855C36.9062 12.2439 37.0516 11.9645 37.0516 10.8325C37.0516 9.0346 36.7719 8.8331 36.3085 10.2976ZM48.9107 10.3847C48.4901 11.4846 49.0737 13.7785 49.6785 13.4032C50.2739 13.0343 50.2766 11.2033 49.683 10.262C49.2963 9.64832 49.1858 9.66633 48.9107 10.3847ZM39.2105 12.3962C38.6264 15.5199 40.302 17.6954 42.4175 16.5599C43.5163 15.9696 43.5551 14.1201 42.4762 13.7634C42.0735 13.6305 41.8935 13.8797 41.991 14.4379C42.1933 15.5987 40.5522 15.956 40.1268 14.8434C39.9521 14.3868 40.0585 13.6125 40.363 13.1234C40.9316 12.2098 40.6657 10.7351 39.9322 10.7351C39.7062 10.7351 39.3811 11.4827 39.2105 12.3962ZM32.4771 13.2679C31.8392 14.1814 31.8256 14.4876 32.3863 15.3364C32.7482 15.8839 33.4163 16.4062 33.8714 16.4967C34.891 16.6992 36.5666 15.2488 36.5666 14.1639C36.5666 12.1139 33.7185 11.49 32.4771 13.2679ZM67.371 13.1686C68.7186 13.7497 69.6694 13.7497 69.3114 13.1686C69.1465 12.9009 68.4241 12.6975 67.7062 12.716C66.5404 12.7467 66.5046 12.7953 67.371 13.1686ZM60.8221 14.6287C59.7954 15.6586 59.5505 16.5755 60.3025 16.5755C60.9943 16.5755 62.2774 15.13 62.2774 14.3508C62.2774 13.4159 61.9732 13.4738 60.8221 14.6287ZM64.4982 14.5674C64.2716 14.9349 64.7373 15.1154 65.9113 15.1154C67.8478 15.1154 70.2679 16.1774 70.659 17.199C70.9991 18.0892 70.3607 21.4015 69.5593 22.9026C68.9456 24.0528 68.9588 24.0794 69.7941 23.3892C71.0067 22.3876 72.4408 19.0835 72.4538 17.2623C72.4621 16.0888 72.1711 15.624 71.1305 15.1471C69.2173 14.2705 64.9129 13.8943 64.4982 14.5674ZM49.1795 14.8964C49.1795 15.0434 49.499 15.7842 49.8895 16.5419C50.9321 18.5642 53.3406 18.8392 55.1439 17.1411C56.3993 15.9589 56.4375 15.8187 55.6575 15.2468C54.8484 14.6531 49.1795 14.3464 49.1795 14.8964ZM44.7789 16.0771C43.8258 16.5828 42.7735 17.326 42.4404 17.729C41.9323 18.3432 42.0832 18.5909 43.3736 19.2606C46.0572 20.6531 48.2092 18.9978 48.2092 15.5413C48.2092 14.8473 46.634 15.0935 44.7789 16.0771ZM62.8594 16.1862C61.5045 17.5455 62.7843 20.4515 64.454 19.8087C65.443 19.4281 65.3922 18.1266 64.3914 18.2113C63.9528 18.2488 63.4983 18.0055 63.3805 17.6711C63.0657 16.7741 64.6843 16.3297 65.7754 17.0135C66.4977 17.4662 66.8801 17.4711 67.4035 17.035C67.7798 16.7215 67.9682 16.2709 67.8222 16.0338C67.4268 15.3919 63.5318 15.5116 62.8594 16.1862ZM48.6942 17.2905C48.6942 18.1519 48.8975 18.4133 49.4131 18.2152C49.9571 18.0055 50.0119 17.7134 49.6387 17.0135C48.9742 15.7681 48.6942 15.8499 48.6942 17.2905ZM56.8276 17.9139C56.652 19.3716 56.8363 19.9547 57.7425 20.8093C58.7108 21.7219 59.1809 21.8245 60.9413 21.5068L63.005 21.134L60.5275 18.6114C59.1648 17.2238 57.8245 16.0888 57.5485 16.0888C57.273 16.0888 56.9484 16.9104 56.8276 17.9139ZM30.8665 16.8977C29.8736 17.2997 30.1792 17.9655 31.2304 17.6901C31.7639 17.5499 32.2005 17.2418 32.2005 17.0053C32.2005 16.5415 31.8223 16.5108 30.8665 16.8977ZM38.0219 17.7923C38.6486 18.4615 39.3413 19.009 39.5616 19.009C40.3461 19.009 39.9464 17.5747 39.0241 17.0793C37.3529 16.1823 36.8495 16.54 38.0219 17.7923ZM55.1403 17.9923C54.6805 18.7311 54.6961 18.9745 55.216 19.1745C55.627 19.3327 55.955 18.9866 56.0961 18.2444C56.3664 16.8267 55.9365 16.7133 55.1403 17.9923ZM68.137 17.6779C67.4908 18.0084 66.8722 18.553 66.7626 18.8874C66.4541 19.8256 68.3281 19.6125 69.2362 18.6055C70.6531 17.035 70.1773 16.6334 68.137 17.6779ZM32.5713 18.0337C30.7992 18.569 27.8347 20.4326 27.8347 21.0119C27.8347 22.033 30.3092 26.2891 31.3134 26.9944C32.6513 27.9346 33.1048 27.5807 32.0545 26.4166C31.6213 25.9366 30.918 24.7043 30.4906 23.6788C29.7386 21.8728 29.7493 21.7755 30.836 20.5948C31.453 19.9239 32.8312 18.9798 33.8984 18.4965C35.916 17.5825 35.0565 17.2827 32.5713 18.0337ZM33.6559 19.3215C32.0201 20.0546 31.9968 20.1003 33.0225 20.581C33.8422 20.9655 34.2676 20.8984 34.876 20.288C35.8788 19.2821 36.8635 19.2748 37.2443 20.2711C37.4423 20.7878 37.2171 21.131 36.5685 21.3009C35.4184 21.6027 35.297 22.3313 36.3303 22.7288C37.2725 23.0919 38.507 22.0679 38.507 20.9238C38.507 20.0398 36.7971 18.5053 35.852 18.5413C35.5779 18.552 34.5897 18.9029 33.6559 19.3215ZM40.0545 20.6769C39.0527 22.1439 37.8517 25.3275 38.1772 25.6539C38.2532 25.7304 39.1071 25.6642 40.0744 25.5065C42.3456 25.1366 43.3198 23.2127 42.3834 20.9457C41.5365 18.8932 41.292 18.8654 40.0545 20.6769ZM52.0236 20.1546C52.7683 20.95 53.462 21.2303 54.291 21.0717C54.9483 20.9457 55.4857 20.6842 55.4857 20.4905C55.4857 19.9805 53.1889 19.009 51.9828 19.009H50.9504L52.0236 20.1546ZM68.9475 19.7035C68.4804 20.05 68.0986 20.8877 68.0986 21.5657C68.0986 22.9605 66.9733 23.6444 66.2053 22.7162C65.8497 22.2859 65.8517 21.9447 66.212 21.5832C66.554 21.24 66.5633 20.9636 66.2398 20.763C65.7319 20.4482 64.2178 21.6864 64.2178 22.416C64.2178 22.9893 65.6338 24.3627 66.2246 24.3627C67.8445 24.3627 70.303 21.3091 69.9468 19.7391C69.8231 19.1915 69.6471 19.1852 68.9475 19.7035ZM42.8604 20.4458C43.1611 21.0089 43.6142 21.3413 43.8675 21.184C44.537 20.7689 44.4468 20.567 43.3212 19.9625C42.397 19.4665 42.3592 19.5064 42.8604 20.4458ZM46.5521 20.4379L45.1369 21.3734L46.7946 22.0688C47.7062 22.4514 48.4749 22.7405 48.5031 22.7119C48.5319 22.6827 48.6899 21.9477 48.8548 21.0775C49.209 19.2125 48.6424 19.0553 46.5521 20.4379ZM49.4117 21.0824C48.8946 23.8483 50.5692 26.7913 51.5807 24.8952C52.3297 23.4911 52.2011 21.137 51.3279 20.2602C50.1953 19.1244 49.7415 19.3191 49.4117 21.0824ZM72.4869 20.9139C72.189 21.4727 72.1479 21.9292 72.3957 21.9292C72.8943 21.9292 73.5823 20.4551 73.2433 20.1143C73.1249 19.996 72.7848 20.3558 72.4869 20.9139ZM31.6481 22.4319C32.9555 23.5246 33.4585 23.6166 33.9319 22.848C34.3641 22.1463 33.2557 21.4551 31.7155 21.4664L30.5026 21.4752L31.6481 22.4319ZM53.5841 22.1254C53.2736 22.5011 52.8225 23.4978 52.5815 24.3408C52.2298 25.5702 52.2972 25.9329 52.92 26.1729C53.8816 26.5432 56.456 23.802 56.456 22.4081C56.456 21.2508 54.4699 21.0552 53.5841 22.1254ZM56.8189 23.5855L56.0334 25.2368L57.7004 25.4321C59.5952 25.6539 59.7562 25.2087 58.4819 23.27L57.6038 21.9337L56.8189 23.5855ZM61.7009 23.2584C59.9304 25.1521 60.288 27.3341 62.5465 28.4145C63.6224 28.9289 64.2872 29.0239 64.4919 28.6919C64.9095 28.014 64.3177 24.3895 63.5657 23.0151L62.9612 21.9112L61.7009 23.2584ZM44.8134 23.6215C44.8134 24.9254 46.1301 26.0296 48.3305 26.5728C50.1628 27.0245 50.1224 25.7207 48.2466 23.8386C46.4473 22.0334 44.8134 21.9297 44.8134 23.6215ZM59.3667 22.8738C59.3667 23.7169 60.2204 23.8731 60.8264 23.1406C61.3256 22.5375 61.2533 22.416 60.3961 22.416C59.8299 22.416 59.3667 22.6219 59.3667 22.8738ZM71.3732 23.4282C69.6462 24.4372 70.6308 27.2828 72.7072 27.2828C74.75 27.2828 75.5931 25.1375 74.1281 23.6672C73.2509 22.7877 72.5709 22.7284 71.3732 23.4282ZM42.8714 25.0972C42.1352 27.3354 42.3897 27.8928 43.6709 26.8445C44.4243 26.2278 44.6432 25.6344 44.4631 24.6913C44.1241 22.9099 43.5419 23.0584 42.8714 25.0972ZM31.2304 24.2541C31.2304 25.0806 32.8501 26.8829 33.979 27.3136C35.3528 27.8378 36.7679 27.2673 37.2549 25.9932C37.6716 24.9045 36.4066 23.6467 35.3169 24.0664C34.5219 24.3725 34.5223 24.4226 35.3232 25.0101C36.0931 25.5751 36.0998 25.6886 35.3975 26.2729C34.4467 27.0649 33.1708 26.215 33.1708 24.79C33.1708 24.2007 32.8264 23.8761 32.2005 23.8761C31.667 23.8761 31.2304 24.0463 31.2304 24.2541ZM28.3197 25.4662C28.3197 26.1947 29.6354 27.5866 29.9875 27.2308C30.0913 27.1258 29.7591 26.5228 29.2483 25.8905C28.6156 25.1078 28.3197 24.9726 28.3197 25.4662ZM65.6732 25.7942C65.6732 26.5592 66.6326 26.9044 67.8837 26.5893C69.6475 26.1455 69.3162 25.3361 67.371 25.3361C66.4372 25.3361 65.6732 25.542 65.6732 25.7942ZM40.2403 26.2895C39.3522 26.6092 39.3496 26.6429 40.1885 26.966C41.1523 27.337 41.6161 27.1126 41.3467 26.4053C41.2522 26.1567 40.7545 26.1047 40.2403 26.2895ZM54.6368 26.3023C54.0369 26.5568 53.5453 27.0941 53.5453 27.4966C53.5453 28.473 56.3804 29.2132 57.7634 28.5979C58.77 28.1503 59.6179 26.8858 59.1955 26.4623C58.7248 25.9902 55.6289 25.8813 54.6368 26.3023ZM44.0411 27.4052C42.821 28.3682 42.7987 28.4582 43.6321 29.0696C44.7183 29.8663 46.3139 29.8964 47.9438 29.1513C49.8722 28.2699 49.5315 27.5953 46.7544 26.7962C45.6322 26.4735 45.0583 26.602 44.0411 27.4052ZM49.9007 27.3033C49.503 28.5601 50.19 29.387 51.4323 29.147C52.0216 29.0331 52.3327 28.5548 52.3327 27.7628C52.3327 26.1342 50.3868 25.7664 49.9007 27.3033ZM38.0249 28.3883C38.0276 30.3247 38.9028 33.61 39.4156 33.61C39.6233 33.61 40.2679 33.1029 40.8481 32.4838C42.6518 30.5574 42.0599 28.5353 39.3559 27.3847C38.0594 26.8327 38.0219 26.861 38.0249 28.3883ZM65.9244 28.5605C64.8266 29.662 65.1676 31.3823 66.5221 31.5756C67.122 31.6607 67.6136 31.4968 67.6136 31.2105C67.6136 30.9239 67.3953 30.6898 67.1283 30.6898C66.4876 30.6898 66.5036 29.3738 67.1498 28.9732C67.859 28.5333 69.0689 29.6531 69.0689 30.7491C69.0689 31.2519 69.2693 31.6633 69.5142 31.6633C69.7591 31.6633 70.305 31.7961 70.727 31.9586C72.0334 32.4614 71.5832 31.1682 69.8449 29.4244C68.0133 27.5866 67.0964 27.3847 65.9244 28.5605ZM70.1017 28.5502C71.2678 29.911 72.4647 32.4492 72.4647 33.5609C72.4647 34.6423 70.0948 36.6178 67.8561 37.4029L66.4007 37.9134L67.7503 37.9518C69.3215 37.9967 72.0295 36.9444 73.6653 35.6532L74.8091 34.7503L73.853 32.6074C72.7848 30.2138 71.7379 28.9027 70.2869 28.1404C69.3662 27.6568 69.3556 27.6796 70.1017 28.5502ZM28.1117 29.0209C27.218 29.9179 27.1695 30.4164 27.8516 31.6954C28.8243 33.5189 31.7155 32.5845 31.7155 30.4465C31.7155 28.397 29.5771 27.5512 28.1117 29.0209ZM58.5454 29.1295C57.5965 29.8702 57.5504 30.0868 58.121 31.1366L58.7603 32.3134L59.3366 31.233C59.6534 30.6392 59.8445 29.7359 59.7611 29.2264C59.6165 28.3453 59.5564 28.3406 58.5454 29.1295ZM60.8221 29.0321C60.8221 29.4084 61.2586 29.7164 61.7922 29.7164C62.3259 29.7164 62.7625 29.5227 62.7625 29.2867C62.7625 29.0501 62.3259 28.7421 61.7922 28.6018C61.1615 28.4364 60.8221 28.5873 60.8221 29.0321ZM72.9351 29.2025C73.5309 30.319 74.4051 30.9516 74.4051 30.2664C74.4051 29.7835 73.0758 28.2563 72.6552 28.2563C72.5314 28.2563 72.6577 28.6822 72.9351 29.2025ZM34.5048 29.0735C33.0268 29.4697 33.5885 30.2714 35.2326 30.1122C36.0998 30.0284 36.7659 29.7408 36.7135 29.4731C36.6024 28.9084 35.7166 28.7484 34.5048 29.0735ZM52.8217 29.2234C52.3869 29.9285 54.0455 31.9986 55.7089 32.8264C57.2522 33.595 57.9114 33.4646 57.9114 32.3918C57.9114 30.614 53.6133 27.9385 52.8217 29.2234ZM48.088 29.7564C47.2255 30.2595 45.7837 32.655 45.7837 33.5857C45.7837 34.322 48.4769 34.216 49.1062 33.4553C49.8066 32.6083 50.0404 29.6226 49.422 29.4201C49.1552 29.3324 48.5545 29.4837 48.088 29.7564ZM42.873 30.3476C42.873 30.9765 44.4783 33.61 44.8615 33.61C45.0394 33.61 45.2951 33.227 45.4295 32.7583C45.5638 32.2896 45.821 31.5488 46.0014 31.1118C46.2615 30.4806 45.9729 30.2751 44.601 30.1141C43.6506 30.003 42.873 30.1076 42.873 30.3476ZM50.4551 31.2982C49.9323 33.2571 50.1312 34.4156 51.1494 35.3402C52.0053 36.1176 52.2137 36.1457 52.5975 35.5374C52.8439 35.1465 53.0486 34.2101 53.053 33.4563C53.0679 30.661 51.0694 29 50.4551 31.2982ZM60.7551 30.6987C59.5346 31.4135 59.243 33.4187 60.1142 35.1087C60.7769 36.395 60.9883 36.5108 61.6548 35.9564C62.3966 35.3394 63.2422 33.6232 63.9501 31.2982C64.2411 30.3409 64.1114 30.2052 62.9161 30.2178C62.1647 30.226 61.1921 30.4422 60.7551 30.6987ZM34.029 32.4921C32.8414 33.8086 32.0778 36.0455 32.8191 36.0362C33.7995 36.0236 34.7718 35.2137 34.4443 34.6817C33.9295 33.8466 34.6733 32.6367 35.7007 32.6367C36.4943 32.6367 36.616 32.8591 36.3672 33.8533C36.0504 35.1203 36.3575 35.3427 37.4577 34.6427C37.8149 34.4156 38.0331 33.7073 37.9429 33.0684C37.7294 31.5527 35.2103 31.1824 34.029 32.4921ZM31.2497 34.3001C30.6788 35.4828 30.0899 37.2063 29.9406 38.1301C29.6752 39.7712 29.7213 39.8272 31.9915 40.6034C34.5747 41.4862 38.0219 41.662 38.0219 40.9106C38.0219 40.6428 37.3743 40.4237 36.5831 40.4237C35.7919 40.4237 34.373 40.0549 33.4299 39.6038C31.9716 38.9057 31.7155 38.5399 31.7155 37.1547C31.7155 36.2586 32.0319 34.7659 32.4184 33.8377C33.4405 31.3833 32.4722 31.7669 31.2497 34.3001ZM41.4177 32.88C40.9131 33.4898 40.9831 33.61 41.8436 33.61C42.4354 33.61 42.873 33.2995 42.873 32.88C42.873 32.4785 42.6813 32.1499 42.4471 32.1499C42.2132 32.1499 41.75 32.4785 41.4177 32.88ZM53.8249 33.0051C53.671 33.1594 53.5453 33.9059 53.5453 34.6648C53.5453 36.2649 54.3962 36.4533 55.9262 35.1918L56.959 34.3401L55.5318 33.5322C54.7469 33.0883 53.9785 32.8509 53.8249 33.0051ZM64.5165 33.3799C63.4959 34.4037 63.5255 35.218 64.6199 36.2114C65.7445 37.2325 67.2424 37.2345 69.2037 36.2169L70.7453 35.4172L69.5932 34.9893C68.7495 34.6764 68.2054 34.7761 67.5602 35.3616C67.0761 35.8016 66.344 36.0323 65.9336 35.8747C64.9527 35.497 64.9702 34.0968 65.9559 34.0968C66.3785 34.0968 66.6379 33.8367 66.5321 33.5189C66.2242 32.5914 65.3621 32.5315 64.5165 33.3799ZM68.5837 33.3667C69.2328 34.1512 71.4944 34.3809 71.4944 33.6622C71.4944 33.1257 70.2904 32.6367 68.9698 32.6367C68.1447 32.6367 68.0807 32.7583 68.5837 33.3667ZM29.6437 33.9039C29.449 34.0992 29.29 34.5947 29.29 35.0054C29.29 35.5529 29.4336 35.6075 29.8294 35.2097C30.1263 34.9124 30.2859 34.4165 30.1835 34.1088C30.0812 33.8009 29.8381 33.7089 29.6437 33.9039ZM40.7234 34.5334C39.8721 34.8677 39.9765 35.1071 41.8771 37.1755C43.0263 38.427 44.2415 39.4505 44.5776 39.4505C44.9133 39.4505 45.2985 38.7385 45.4328 37.8686C45.8584 35.113 43.4997 33.4421 40.7234 34.5334ZM47.9603 34.8744L46.5113 35.4751L47.9345 36.0246C48.7177 36.3272 49.7388 36.5098 50.203 36.4304C50.9981 36.2957 50.9995 36.2269 50.2288 35.2799C49.5 34.3854 49.2478 34.3401 47.9603 34.8744ZM58.1204 34.638C57.937 34.9353 58.0879 35.3699 58.4557 35.6036C59.5627 36.3073 59.9164 36.1004 59.3667 35.07C58.7705 33.9522 58.5828 33.887 58.1204 34.638ZM37.6338 36.1408C36.813 36.9643 36.91 37.6624 37.7977 37.3205C38.7666 36.9474 39.3575 38.436 38.4609 38.992C38.0501 39.247 37.399 39.153 36.7858 38.7495C36.0683 38.278 35.5322 38.2308 34.9036 38.584C34.1916 38.9837 34.1508 39.1575 34.6892 39.5001C35.8796 40.2565 38.7936 39.9901 39.6445 39.047C40.6467 37.9358 40.6566 37.2963 39.6853 36.3215C38.7704 35.4036 38.4008 35.3715 37.6338 36.1408ZM55.9006 36.3199C55.0255 36.7799 54.5259 37.5396 54.2983 38.756C54.1169 39.7279 54.0731 40.6286 54.2012 40.7577C54.4943 41.0512 58.3204 39.2777 59.5738 38.2672C60.6304 37.4155 60.629 37.4131 58.6332 36.3964C57.3773 35.7564 56.9935 35.7456 55.9006 36.3199ZM33.4571 36.9687C32.998 37.4774 32.8006 37.9991 33.0179 38.1281C33.7126 38.5403 35.5963 37.5625 35.5963 36.7892C35.5963 35.7598 34.4617 35.8548 33.4571 36.9687ZM46.2688 37.5631C46.2688 38.4264 46.3886 38.4965 46.9963 37.9904C47.4024 37.6525 47.7241 37.5995 47.7241 37.871C47.7241 38.1388 47.3967 38.6303 46.9963 38.9637C45.7861 39.9718 46.147 40.3294 48.9665 40.9169C52.7226 41.699 53.2819 41.4098 52.2425 39.2227C51.5216 37.7055 51.2111 37.5036 49.6034 37.5036C48.6012 37.5036 47.6465 37.2847 47.4816 37.017C46.9629 36.1749 46.2688 36.4874 46.2688 37.5631ZM62.8484 37.3298C63.0355 38.2857 64.5141 39.3151 65.0002 38.8279C65.3839 38.4425 63.833 36.5303 63.137 36.5303C62.8919 36.5303 62.7619 36.8899 62.8484 37.3298ZM52.5752 38.477C52.8609 39.0123 53.196 39.4505 53.3197 39.4505C53.444 39.4505 53.5453 39.0123 53.5453 38.477C53.5453 37.9266 53.2218 37.5036 52.8008 37.5036C52.2064 37.5036 52.1609 37.7002 52.5752 38.477ZM70.5243 38.477C69.897 38.8835 69.91 38.9497 70.6169 38.9564C71.068 38.9603 71.572 38.7448 71.7369 38.477C72.1163 37.861 71.4741 37.861 70.5243 38.477ZM41.0238 39.8461C39.9401 40.9328 39.6363 41.884 40.3723 41.884C41.0733 41.884 42.4981 40.0252 42.2859 39.3872C42.1488 38.9735 41.7481 39.1189 41.0238 39.8461ZM59.5422 39.6938C59.1983 40.5918 59.6494 41.884 60.3063 41.884C60.5732 41.884 60.6745 41.5778 60.5309 41.2031C60.1483 40.2023 61.2872 39.7084 62.0993 40.523C62.8036 41.2297 62.5505 42.8573 61.7364 42.8573C61.4959 42.8573 61.5715 43.2954 61.9049 43.8307C62.7644 45.212 63.0938 45.0494 63.4658 43.0602C63.8815 40.8345 62.7731 38.9637 61.0384 38.9637C60.3689 38.9637 59.6955 39.2923 59.5422 39.6938ZM67.0071 39.4893C65.722 40.2403 65.8832 42.7818 67.2497 43.3134C69.6714 44.2557 71.5663 41.2114 69.4734 39.7411C68.1902 38.8391 68.1307 38.8328 67.0071 39.4893ZM43.1908 41.314C42.7493 41.8036 42.388 42.7785 42.388 43.4812C42.388 44.9137 43.3153 47.2377 43.8874 47.2377C44.6824 47.2377 44.5252 45.0018 43.6699 44.1438C42.8661 43.3372 42.8482 43.1605 43.5021 42.5044C44.3822 41.6212 45.3771 42.085 44.9574 43.1825C44.7537 43.7149 44.8765 43.8906 45.3426 43.7354C46.2575 43.4292 46.4884 42.0056 45.7642 41.1304C44.9799 40.182 44.1589 40.2403 43.1908 41.314ZM55.837 41.4624C55.3476 41.7374 55.0007 42.5133 55.0007 43.3329C55.0007 44.972 56.9304 46.7509 58.7083 46.7509C59.7387 46.7509 59.796 46.6482 59.2542 45.7776C58.9209 45.2421 58.1482 44.8042 57.5368 44.8042C56.9257 44.8042 56.2945 44.461 56.1339 44.0415C55.7759 43.1061 56.6743 42.03 57.1576 42.8149C57.6281 43.5791 58.3964 43.4652 58.3964 42.6311C58.3964 41.5977 56.8518 40.893 55.837 41.4624ZM64.0951 42.8573C63.8941 43.7943 63.2814 45.2987 62.7333 46.2004C61.7878 47.7554 61.6316 47.8232 59.7028 47.5141C58.5842 47.335 57.1852 46.871 56.5943 46.4827C55.1904 45.5609 54.7233 45.5857 55.5125 46.5397C56.389 47.5992 58.412 48.5868 60.8167 49.129L62.8537 49.5885L63.8055 47.429C64.3967 46.0881 64.7015 44.4891 64.6087 43.2117L64.4603 41.1539L64.0951 42.8573ZM32.9161 42.3511C33.0879 42.6295 33.7971 42.8573 34.4932 42.8573C36.0135 42.8573 35.838 42.6242 33.979 42.1764C33.0776 41.9589 32.712 42.0192 32.9161 42.3511ZM47.7415 42.5925C46.9323 43.5712 47.5771 44.5589 48.5153 43.7777C49.0246 43.3537 49.3676 43.3382 49.7494 43.7212C50.5138 44.4883 49.8619 45.7776 48.7094 45.7776C48.1674 45.7776 47.7241 45.9786 47.7241 46.2242C47.7241 46.4701 47.5742 47.0633 47.3908 47.5429C47.0949 48.3162 47.2733 48.2913 48.9675 47.3267L50.8773 46.2384L49.5414 47.4463C48.8063 48.1109 47.4185 48.8024 46.4569 48.9834C44.9232 49.2721 44.5666 49.1407 43.5439 47.9097C42.9036 47.1388 42.2447 45.9055 42.0802 45.1692C41.9159 44.4328 41.5865 43.8307 41.3477 43.8307C40.4194 43.8307 42.6882 49.9675 44.0295 51.0844C44.7096 51.651 49.0658 49.7646 50.1758 48.4227C50.9849 47.445 51.2682 43.3795 50.5848 42.5537C49.8619 41.6801 48.4809 41.699 47.7415 42.5925ZM52.5752 43.8019C52.5752 44.5894 52.7779 45.359 53.0254 45.5128C53.6172 45.8793 54.1371 44.1899 53.7473 43.1693C53.2553 41.883 52.5752 42.2505 52.5752 43.8019ZM36.0868 43.5811C35.2801 44.5559 35.852 46.6122 37.0347 46.9889C39.189 47.6747 40.948 45.0144 39.3801 43.4414C38.5759 42.6344 36.8077 42.7093 36.0868 43.5811ZM59.6447 43.7734C59.2479 44.4172 60.5596 46.7509 61.3183 46.7509C62.0804 46.7509 61.8655 45.4894 60.8991 44.2921C60.2641 43.5056 59.9018 43.3557 59.6447 43.7734ZM65.5697 44.8042C65.4523 45.6072 65.5362 46.2642 65.7571 46.2642C65.9777 46.2642 66.1582 45.6072 66.1582 44.8042C66.1582 44.0011 66.0737 43.3441 65.9705 43.3441C65.8676 43.3441 65.6871 44.0011 65.5697 44.8042ZM45.2855 45.8018C44.5307 47.2172 45.0457 48.5406 46.032 47.7194C46.8427 47.0444 46.995 45.4977 46.293 45.0626C46.0398 44.9054 45.5861 45.2382 45.2855 45.8018ZM40.4547 47.6026C40.4509 48.2046 40.6657 48.6978 40.9326 48.6978C41.5404 48.6978 41.5404 48.1814 40.9326 47.2377C40.5522 46.6472 40.461 46.7174 40.4547 47.6026ZM52.367 48.0023C50.902 49.4726 51.7452 51.6179 53.7878 51.6179C55.919 51.6179 56.8504 48.7173 55.0328 47.7415C53.7579 47.057 53.261 47.1057 52.367 48.0023ZM56.9411 49.1781C56.9411 49.5144 58.0822 50.1578 58.6787 50.1578C59.3405 50.1578 58.7191 49.2555 57.9114 49.0433C57.3776 48.9036 56.9411 48.9639 56.9411 49.1781ZM49.2468 50.1996C48.4669 50.8344 48.3319 51.1313 48.8239 51.1313C49.55 51.1313 50.9374 49.8113 50.5828 49.4579C50.478 49.3538 49.8769 49.6872 49.2468 50.1996Z" fill="#F3EED9"/>
<path fill-rule="evenodd" clip-rule="evenodd" d="M15.2707 32.7502C7.53547 35.4922 1.78089 44.6361 0.376224 56.4168L0 59.5724L3.23361 57.906C7.56636 55.6729 10.7801 56.0363 26.4187 60.5312C54.1651 68.5062 66.7881 57.6022 56.0507 59.5724C48.9121 62.2451 48.3764 57.2074 40.6534 52.8222C35.1748 49.7108 28.6741 44.7151 29.1348 43.9698C29.3613 43.6021 31.1504 43.2966 33.1105 43.2905C41.7368 43.2615 51.741 39.5901 54.2031 35.5505C56.2407 32.2068 55.9909 31.5123 53.1733 32.6903C50.055 33.9941 40.9438 33.977 34.0395 32.6554C27.3352 31.3715 19.0405 31.4134 15.2707 32.7502Z" fill="#C3093D"/>
</g>
<defs>
<clipPath id="clip0_2_4719">
<rect width="93.3851" height="66" fill="white"/>
</clipPath>
</defs>
</svg>
